<svg width="48" height="48" viewBox="0 0 48 48" fill="none" xmlns="http://www.w3.org/2000/svg">
<path d="M45.0799 12.84C44.8424 11.8908 44.3585 11.0211 43.6772 10.3188C42.996 9.61648 42.1414 9.10637 41.1999 8.84C37.7599 8 23.9999 8 23.9999 8C23.9999 8 10.2399 8 6.79992 8.92C5.85842 9.18637 5.00388 9.69648 4.32262 10.3988C3.64135 11.1011 3.1575 11.9708 2.91992 12.92C2.29035 16.4111 1.98239 19.9526 1.99992 23.5C1.97748 27.0741 2.28546 30.6426 2.91992 34.16C3.18184 35.0797 3.67654 35.9163 4.35621 36.589C5.03589 37.2616 5.87756 37.7476 6.79992 38C10.2399 38.92 23.9999 38.92 23.9999 38.92C23.9999 38.92 37.7599 38.92 41.1999 38C42.1414 37.7336 42.996 37.2235 43.6772 36.5212C44.3585 35.8189 44.8424 34.9492 45.0799 34C45.7046 30.5352 46.0126 27.0207 45.9999 23.5C46.0224 19.9259 45.7144 16.3574 45.0799 12.84Z" fill="url(#paint0_linear_8_1036)" stroke="url(#paint1_linear_8_1036)" stroke-width="2" stroke-linecap="round" stroke-linejoin="round"/>
<path d="M19.5 30.04L31 23.5L19.5 16.96V30.04Z" stroke="url(#paint2_linear_8_1036)" stroke-width="2" stroke-linecap="round" stroke-linejoin="round"/>
<defs>
<linearGradient id="paint0_linear_8_1036" x1="23.7142" y1="8" x2="26.3922" y2="38.6863" gradientUnits="userSpaceOnUse">
<stop stop-color="#0F0E37"/>
<stop offset="0.515625" stop-color="#080817"/>
<stop offset="0.989583"/>
</linearGradient>
<linearGradient id="paint1_linear_8_1036" x1="23.7142" y1="8" x2="26.3922" y2="38.6863" gradientUnits="userSpaceOnUse">
<stop stop-color="#0F0E37"/>
<stop offset="0.515625" stop-color="#080817"/>
<stop offset="0.989583"/>
</linearGradient>
<linearGradient id="paint2_linear_8_1036" x1="20.0512" y1="18.3906" x2="32.1786" y2="28.7482" gradientUnits="userSpaceOnUse">
<stop stop-color="#1CAFDE"/>
<stop offset="1" stop-color="#194A93"/>
</linearGradient>
</defs>
</svg>
